<?xml version="1.0" encoding="UTF-8"?>
<svg xmlns="http://www.w3.org/2000/svg" xmlns:xlink="http://www.w3.org/1999/xlink" width="68px" height="68px" viewBox="0 0 68 68" version="1.1">
<g id="surface1">
<path style=" stroke:none;fill-rule:evenodd;fill:rgb(100%,100%,100%);fill-opacity:1;" d="M 53.265625 68 L 14.734375 68 C 10.824219 68.007812 7.070312 66.457031 4.308594 63.691406 C 1.542969 60.929688 -0.0078125 57.175781 0 53.265625 L 0 14.734375 C -0.0078125 10.824219 1.542969 7.070312 4.308594 4.308594 C 7.070312 1.542969 10.824219 -0.0078125 14.734375 0 L 53.265625 0 C 57.175781 -0.0078125 60.929688 1.542969 63.691406 4.308594 C 66.457031 7.070312 68.007812 10.824219 68 14.734375 L 68 53.265625 C 68.007812 57.175781 66.457031 60.929688 63.691406 63.691406 C 60.929688 66.457031 57.175781 68.007812 53.265625 68 Z M 53.265625 68 "/>
<path style=" stroke:none;fill-rule:nonzero;fill:rgb(100%,23.137255%,18.82353%);fill-opacity:1;" d="M 24.003906 14.527344 C 24.089844 15.257812 24.808594 15.730469 25.847656 15.730469 C 26.804688 15.730469 27.484375 15.246094 27.484375 14.5625 C 27.484375 13.984375 27.042969 13.648438 25.964844 13.410156 L 24.816406 13.160156 C 23.210938 12.816406 22.421875 11.992188 22.421875 10.65625 C 22.421875 9.015625 23.761719 7.925781 25.792969 7.925781 C 27.734375 7.925781 29.109375 9.007812 29.164062 10.5625 L 27.429688 10.5625 C 27.34375 9.84375 26.695312 9.375 25.804688 9.375 C 24.882812 9.375 24.273438 9.820312 24.273438 10.507812 C 24.273438 11.066406 24.695312 11.386719 25.726562 11.613281 L 26.789062 11.839844 C 28.558594 12.21875 29.320312 12.980469 29.320312 14.34375 C 29.320312 16.101562 27.960938 17.1875 25.75 17.1875 C 23.652344 17.1875 22.289062 16.15625 22.222656 14.527344 Z M 36.050781 14.824219 L 32.957031 14.824219 L 32.277344 16.960938 L 30.429688 16.960938 L 33.488281 8.152344 L 35.65625 8.152344 L 38.714844 16.960938 L 36.71875 16.960938 Z M 33.355469 13.445312 L 35.660156 13.445312 L 34.566406 9.941406 L 34.457031 9.941406 Z M 41.402344 16.960938 L 41.402344 9.671875 L 38.757812 9.671875 L 38.757812 8.152344 L 45.890625 8.152344 L 45.890625 9.671875 L 43.246094 9.671875 L 43.246094 16.960938 Z M 41.402344 16.960938 "/>
<path style=" stroke:none;fill-rule:nonzero;fill:rgb(0%,0%,0%);fill-opacity:1;" d="M 21.03125 24.007812 C 26.589844 24.007812 30.542969 27.828125 30.542969 32.554688 C 30.542969 35.902344 29.019531 38.4375 23.5 44.125 L 15.210938 52.777344 L 15.210938 52.863281 L 31.335938 52.863281 L 31.335938 55.484375 L 11.132812 55.484375 L 11.132812 53.421875 L 22.082031 41.914062 C 26.527344 37.277344 27.621094 35.429688 27.621094 32.703125 C 27.621094 29.289062 24.9375 26.585938 21.03125 26.585938 C 16.929688 26.585938 13.859375 29.398438 13.816406 33.199219 L 10.984375 33.199219 C 11.027344 27.894531 15.296875 24.007812 21.03125 24.007812 Z M 35.136719 39.980469 C 35.136719 30.257812 39.367188 24.007812 46.367188 24.007812 C 53.386719 24.007812 57.574219 30.234375 57.574219 39.960938 C 57.574219 49.75 53.40625 55.976562 46.367188 55.976562 C 39.324219 55.976562 35.136719 49.773438 35.136719 39.980469 Z M 54.632812 39.980469 C 54.632812 31.84375 51.5625 26.605469 46.367188 26.605469 C 41.191406 26.605469 38.101562 31.886719 38.101562 39.960938 C 38.101562 48.183594 41.128906 53.398438 46.367188 53.398438 C 51.605469 53.398438 54.632812 48.183594 54.632812 39.980469 Z M 54.632812 39.980469 "/>
</g>
</svg>
