<?xml version="1.0" encoding="UTF-8"?>
<svg xmlns="http://www.w3.org/2000/svg" xmlns:xlink="http://www.w3.org/1999/xlink" width="68px" height="74px" viewBox="0 0 68 74" version="1.1">
<g id="surface1">
<path style=" stroke:none;fill-rule:nonzero;fill:rgb(91.764706%,26.274511%,20.784314%);fill-opacity:1;" d="M 29.171875 34.371094 L 0.203125 67.957031 C 1.257812 71.507812 4.605469 74 8.347656 74 C 9.976562 74 11.402344 73.59375 12.621094 72.789062 L 48.25 52.632812 Z M 29.171875 34.371094 "/>
<path style=" stroke:none;fill-rule:nonzero;fill:rgb(98.431373%,73.725492%,1.568628%);fill-opacity:1;" d="M 63.316406 29.644531 L 48.046875 20.972656 L 31.761719 36.902344 L 48.25 52.632812 L 63.519531 44.164062 C 66.167969 42.75 68 39.929688 68 36.902344 C 67.796875 33.878906 65.964844 31.054688 63.316406 29.644531 Z M 63.316406 29.644531 "/>
<path style=" stroke:none;fill-rule:nonzero;fill:rgb(20.392157%,65.882355%,32.549021%);fill-opacity:1;" d="M 29.101562 39.523438 L 48.046875 20.972656 L 12.828125 1.210938 C 11.605469 0.40625 9.976562 0 8.347656 0 C 4.480469 0 1.019531 2.625 0.203125 6.050781 Z M 29.101562 39.523438 "/>
<path style=" stroke:none;fill-rule:nonzero;fill:rgb(25.882354%,52.156866%,95.686275%);fill-opacity:1;" d="M 0.203125 6.050781 C 0 6.65625 0 7.464844 0 8.269531 L 0 65.738281 C 0 66.546875 0 67.152344 0.203125 67.957031 L 31.761719 36.902344 Z M 0.203125 6.050781 "/>
</g>
</svg>
