<?xml version="1.0" encoding="UTF-8"?>
<svg xmlns="http://www.w3.org/2000/svg" xmlns:xlink="http://www.w3.org/1999/xlink" width="68px" height="68px" viewBox="0 0 68 68" version="1.1">
<defs>
<linearGradient id="linear0" gradientUnits="userSpaceOnUse" x1="-1315.781982" y1="529.79303" x2="-1195.781982" y2="529.79303" gradientTransform="matrix(0.000000000000000035,-0.566667,0.566667,0.000000000000000035,-266.216621,-677.609807)">
<stop offset="0" style="stop-color:rgb(11.372549%,43.529412%,94.901961%);stop-opacity:1;"/>
<stop offset="1" style="stop-color:rgb(10.196078%,78.431373%,98.823529%);stop-opacity:1;"/>
</linearGradient>
</defs>
<g id="surface1">
<path style=" stroke:none;fill-rule:evenodd;fill:url(#linear0);" d="M 68 14.734375 L 68 53.265625 C 68.007812 57.175781 66.457031 60.929688 63.691406 63.691406 C 60.929688 66.457031 57.175781 68.007812 53.265625 68 L 14.734375 68 C 10.824219 68.007812 7.070312 66.457031 4.308594 63.691406 C 1.542969 60.929688 -0.0078125 57.175781 0 53.265625 L 0 14.734375 C -0.0078125 10.824219 1.542969 7.070312 4.308594 4.308594 C 7.070312 1.542969 10.824219 -0.0078125 14.734375 0 L 53.265625 0 C 57.175781 -0.0078125 60.929688 1.542969 63.691406 4.308594 C 66.457031 7.070312 68.007812 10.824219 68 14.734375 Z M 68 14.734375 "/>
<path style=" stroke:none;fill-rule:evenodd;fill:rgb(100%,100%,100%);fill-opacity:1;" d="M 46.808594 39.101562 L 55.25 39.101562 C 56.972656 39.101562 58.367188 40.496094 58.367188 42.214844 C 58.367188 43.9375 56.972656 45.332031 55.25 45.332031 L 46.808594 45.332031 Z M 46.808594 39.101562 "/>
<path style=" stroke:none;fill-rule:evenodd;fill:rgb(100%,100%,100%);fill-opacity:1;" d="M 36.4375 39.101562 C 37.625 39.09375 38.769531 39.5625 39.609375 40.402344 C 40.449219 41.246094 40.921875 42.386719 40.914062 43.578125 C 40.914062 44.179688 40.800781 44.777344 40.574219 45.332031 L 12.75 45.332031 C 11.027344 45.332031 9.632812 43.9375 9.632812 42.214844 C 9.632812 40.496094 11.027344 39.101562 12.75 39.101562 Z M 35.644531 18.585938 L 35.644531 24.027344 L 32.015625 24.027344 L 27.597656 16.433594 C 27.070312 15.523438 27.066406 14.398438 27.59375 13.484375 C 28.117188 12.574219 29.09375 12.011719 30.144531 12.011719 C 31.199219 12.011719 32.171875 12.574219 32.695312 13.488281 Z M 38.761719 23.855469 L 54.230469 50.660156 C 55.089844 52.148438 54.582031 54.050781 53.097656 54.910156 C 51.609375 55.769531 49.707031 55.261719 48.847656 53.777344 L 39.496094 37.511719 C 38.648438 35.925781 38.023438 34.679688 37.625 34 C 35.714844 30.742188 36.175781 26.613281 38.761719 23.855469 Z M 38.761719 23.855469 "/>
<path style=" stroke:none;fill-rule:evenodd;fill:rgb(100%,100%,100%);fill-opacity:1;" d="M 26.066406 41.933594 L 18.871094 41.933594 L 35.132812 13.769531 C 35.992188 12.285156 37.898438 11.777344 39.382812 12.636719 C 40.871094 13.496094 41.378906 15.398438 40.515625 16.886719 Z M 22.269531 48.449219 L 19.265625 53.71875 C 18.40625 55.207031 16.503906 55.714844 15.015625 54.851562 C 13.53125 53.992188 13.023438 52.089844 13.882812 50.601562 L 16.09375 46.75 C 16.78125 46.410156 17.535156 46.234375 18.304688 46.238281 C 19.933594 46.1875 21.457031 47.035156 22.269531 48.449219 Z M 22.269531 48.449219 "/>
</g>
</svg>
