<?xml version="1.0" encoding="UTF-8"?>
<svg xmlns="http://www.w3.org/2000/svg" xmlns:xlink="http://www.w3.org/1999/xlink" width="68px" height="68px" viewBox="0 0 68 68" version="1.1">
<g id="surface1">
<path style=" stroke:none;fill-rule:evenodd;fill:rgb(94.901961%,94.901961%,94.901961%);fill-opacity:1;" d="M 0.109375 22.972656 L 67.890625 22.972656 C 67.949219 22.972656 68 23.023438 68 23.082031 L 68 66.21875 C 68 67.117188 67.261719 67.855469 66.351562 67.855469 L 1.648438 67.855469 C 0.746094 67.855469 0 67.121094 0 66.21875 L 0 23.082031 C 0 23.023438 0.0507812 22.972656 0.109375 22.972656 Z M 0.109375 22.972656 "/>
<path style=" stroke:none;fill-rule:evenodd;fill:rgb(80.000001%,80.000001%,80.000001%);fill-opacity:1;" d="M 0 17.089844 L 68 17.089844 L 68 22.972656 L 0 22.972656 Z M 0 17.089844 "/>
<path style=" stroke:none;fill-rule:nonzero;fill:rgb(79.607844%,79.607844%,79.607844%);fill-opacity:1;" d="M 20.917969 0.410156 L 20.917969 22.839844 L 14.554688 22.839844 L 14.554688 5.71875 C 14.554688 5.636719 14.59375 5.566406 14.65625 5.515625 L 20.472656 0.214844 C 20.582031 0.117188 20.75 0.121094 20.851562 0.230469 C 20.894531 0.28125 20.917969 0.34375 20.917969 0.410156 Z M 20.917969 0.410156 "/>
<path style=" stroke:none;fill-rule:evenodd;fill:rgb(94.901961%,94.901961%,94.901961%);fill-opacity:1;" d="M 20.648438 0.410156 L 20.648438 22.972656 L 14.820312 22.972656 L 14.820312 5.71875 Z M 20.648438 0.410156 "/>
<path style=" stroke:none;fill-rule:nonzero;fill:rgb(79.607844%,79.607844%,79.607844%);fill-opacity:1;" d="M 47.09375 22.839844 L 47.09375 0.410156 C 47.09375 0.34375 47.117188 0.28125 47.167969 0.230469 C 47.265625 0.128906 47.433594 0.117188 47.542969 0.214844 L 53.359375 5.515625 C 53.421875 5.566406 53.460938 5.636719 53.460938 5.71875 L 53.460938 22.839844 Z M 47.09375 22.839844 "/>
<path style=" stroke:none;fill-rule:evenodd;fill:rgb(94.901961%,94.901961%,94.901961%);fill-opacity:1;" d="M 47.359375 0.410156 L 47.359375 22.972656 L 53.1875 22.972656 L 53.1875 5.71875 Z M 47.359375 0.410156 "/>
<path style=" stroke:none;fill-rule:evenodd;fill:rgb(80.000001%,80.000001%,80.000001%);fill-opacity:1;" d="M 20.648438 0.144531 L 47.359375 0.144531 L 47.359375 6.0625 L 20.648438 6.0625 Z M 20.648438 0.144531 "/>
<path style=" stroke:none;fill-rule:nonzero;fill:rgb(94.901961%,31.37255%,13.333334%);fill-opacity:1;" d="M 22.09375 33.050781 L 33.410156 33.050781 L 33.410156 44.28125 L 22.09375 44.28125 Z M 22.09375 33.050781 "/>
<path style=" stroke:none;fill-rule:nonzero;fill:rgb(49.803922%,72.941178%,0%);fill-opacity:1;" d="M 34.589844 33.050781 L 45.90625 33.050781 L 45.90625 44.28125 L 34.589844 44.28125 Z M 34.589844 33.050781 "/>
<path style=" stroke:none;fill-rule:nonzero;fill:rgb(0%,64.313728%,93.725491%);fill-opacity:1;" d="M 22.09375 45.449219 L 33.410156 45.449219 L 33.410156 56.675781 L 22.09375 56.675781 Z M 22.09375 45.449219 "/>
<path style=" stroke:none;fill-rule:nonzero;fill:rgb(100%,72.549021%,0%);fill-opacity:1;" d="M 34.589844 45.449219 L 45.90625 45.449219 L 45.90625 56.675781 L 34.589844 56.675781 Z M 34.589844 45.449219 "/>
</g>
</svg>
