<svg xmlns="http://www.w3.org/2000/svg" xmlns:xlink="http://www.w3.org/1999/xlink" viewBox="0,0,256,256" width="68px" height="68px" fill-rule="nonzero"><g fill="none" fill-rule="nonzero" stroke="none" stroke-width="1" stroke-linecap="butt" stroke-linejoin="miter" stroke-miterlimit="10" stroke-dasharray="" stroke-dashoffset="0" font-family="none" font-weight="none" font-size="none" text-anchor="none" style="mix-blend-mode: normal"><g transform="scale(5.33333,5.33333)"><path d="M43.607,23.752l-7.162,-4.172v11.594h7.555v-6.738c0,-0.281 -0.15,-0.542 -0.393,-0.684z" fill="#1a237e"></path><path d="M33.919,8.84h9.046v-1.108c0,-0.957 -0.775,-1.732 -1.731,-1.732h-23.567c-0.956,0 -1.732,0.775 -1.732,1.732v1.108h9.005z" fill="#0c4999"></path><path d="M33.919,33.522h7.314c0.956,0 1.732,-0.775 1.732,-1.732v-6.827h-9.046z" fill="#0f73d9"></path><path d="M15.936,24.964v6.827c0,0.956 0.775,1.732 1.732,1.732h7.273v-8.558h-9.005z" fill="#0f439d"></path><path d="M33.919,8.84h9.046v8.027h-9.046z" fill="#2ecdfd"></path><path d="M15.936,8.84h9.005v8.027h-9.005z" fill="#1c5fb0"></path><path d="M24.94,24.964h8.979v8.558h-8.979z" fill="#1467c7"></path><path d="M24.94,8.84h8.979v8.027h-8.979z" fill="#1690d5"></path><path d="M33.919,16.867h9.046v8.096h-9.046z" fill="#1bb4ff"></path><path d="M15.936,16.867h9.005v8.096h-9.005z" fill="#074daf"></path><path d="M24.94,16.867h8.979v8.096h-8.979z" fill="#2076d4"></path><path d="M15.441,42c0.463,0 26.87,0 26.87,0c0.933,0 1.689,-0.756 1.689,-1.689v-15.873c0,0 -0.03,0.658 -1.751,1.617c-1.3,0.724 -27.505,15.511 -27.505,15.511c0,0 0.234,0.434 0.697,0.434z" fill="#2ed0ff"></path><path d="M42.279,41.997c-0.161,0 -26.59,0.003 -26.59,0.003c-0.933,0 -1.689,-0.756 -1.689,-1.689v-15.244l29.363,16.562c-0.245,0.196 -0.556,0.368 -1.084,0.368z" fill="#139fe2"></path><path d="M22.319,34h-16.638c-0.928,0 -1.681,-0.753 -1.681,-1.681v-16.638c0,-0.928 0.753,-1.681 1.681,-1.681h16.638c0.928,0 1.681,0.753 1.681,1.681v16.638c0,0.928 -0.753,1.681 -1.681,1.681z" fill="#027ad4"></path><path d="M13.914,18.734c-3.131,0 -5.017,2.392 -5.017,5.343c0,2.951 1.879,5.342 5.017,5.342c3.139,0 5.017,-2.392 5.017,-5.342c0,-2.951 -1.886,-5.343 -5.017,-5.343zM13.914,27.616c-1.776,0 -2.838,-1.584 -2.838,-3.539c0,-1.955 1.067,-3.539 2.838,-3.539c1.771,0 2.839,1.585 2.839,3.539c0,1.954 -1.064,3.539 -2.839,3.539z" fill="#ffffff"></path></g></g></svg>