<?xml version="1.0" encoding="UTF-8"?>
<svg xmlns="http://www.w3.org/2000/svg" xmlns:xlink="http://www.w3.org/1999/xlink" width="68px" height="68px" viewBox="0 0 68 68" version="1.1">
<g id="surface1">
<path style=" stroke:none;fill-rule:nonzero;fill:rgb(10.196079%,43.921569%,70.588237%);fill-opacity:1;" d="M 14.996094 4.492188 C 15.171875 4.488281 15.347656 4.488281 15.523438 4.488281 C 15.902344 4.488281 16.285156 4.488281 16.667969 4.488281 C 17.234375 4.488281 17.800781 4.488281 18.367188 4.488281 C 19.378906 4.488281 20.390625 4.488281 21.402344 4.488281 C 22.289062 4.488281 23.175781 4.488281 24.0625 4.488281 C 24.121094 4.488281 24.179688 4.488281 24.238281 4.488281 C 24.476562 4.488281 24.71875 4.488281 24.957031 4.488281 C 27.195312 4.488281 29.4375 4.488281 31.679688 4.488281 C 33.667969 4.492188 35.65625 4.492188 37.640625 4.488281 C 39.878906 4.488281 42.117188 4.488281 44.351562 4.488281 C 44.589844 4.488281 44.828125 4.488281 45.066406 4.488281 C 45.125 4.488281 45.1875 4.488281 45.246094 4.488281 C 46.132812 4.488281 47.015625 4.488281 47.902344 4.488281 C 48.910156 4.488281 49.914062 4.488281 50.921875 4.488281 C 51.484375 4.488281 52.046875 4.488281 52.609375 4.488281 C 52.988281 4.488281 53.363281 4.488281 53.742188 4.488281 C 53.957031 4.488281 54.167969 4.488281 54.382812 4.488281 C 57.171875 4.480469 59.578125 5.152344 61.617188 7.144531 C 61.890625 7.417969 61.890625 7.417969 61.890625 7.570312 C 61.933594 7.570312 61.976562 7.570312 62.023438 7.570312 C 62.140625 7.71875 62.25 7.871094 62.355469 8.027344 C 62.386719 8.074219 62.417969 8.121094 62.453125 8.167969 C 62.691406 8.527344 62.914062 8.894531 63.125 9.269531 C 63.152344 9.316406 63.179688 9.367188 63.207031 9.417969 C 63.363281 9.703125 63.46875 9.972656 63.550781 10.292969 C 63.59375 10.425781 63.640625 10.558594 63.683594 10.691406 C 63.898438 11.347656 63.980469 11.996094 64.039062 12.679688 C 64.054688 12.824219 64.066406 12.964844 64.078125 13.105469 C 64.085938 13.207031 64.097656 13.308594 64.105469 13.40625 C 64.152344 13.945312 64.207031 14.484375 64.257812 15.023438 C 64.273438 15.199219 64.292969 15.375 64.308594 15.550781 C 64.332031 15.800781 64.355469 16.046875 64.382812 16.296875 C 64.421875 16.703125 64.460938 17.109375 64.5 17.515625 C 64.578125 18.335938 64.65625 19.15625 64.738281 19.976562 C 64.757812 20.207031 64.78125 20.441406 64.804688 20.671875 C 64.945312 22.117188 65.082031 23.566406 65.222656 25.011719 C 65.253906 25.34375 65.289062 25.675781 65.320312 26.011719 C 65.328125 26.09375 65.335938 26.175781 65.34375 26.261719 C 65.472656 27.605469 65.601562 28.949219 65.734375 30.292969 C 65.867188 31.679688 66 33.0625 66.132812 34.445312 C 66.210938 35.222656 66.285156 35.996094 66.359375 36.773438 C 66.421875 37.433594 66.484375 38.089844 66.550781 38.75 C 66.582031 39.085938 66.613281 39.421875 66.648438 39.757812 C 66.675781 40.066406 66.707031 40.375 66.738281 40.683594 C 66.746094 40.792969 66.757812 40.902344 66.769531 41.015625 C 66.835938 41.710938 66.914062 42.402344 67.003906 43.097656 C 67.078125 43.675781 67.078125 43.675781 67.078125 43.929688 C 67.078125 43.976562 67.078125 44.027344 67.074219 44.078125 C 67.074219 44.125 67.074219 44.175781 67.074219 44.226562 C 67.074219 44.304688 67.074219 44.304688 67.074219 44.382812 C 67.074219 44.507812 67.070312 44.632812 67.070312 44.757812 C 67.113281 44.78125 67.15625 44.800781 67.203125 44.824219 C 67.203125 44.910156 67.199219 44.992188 67.199219 45.082031 C 67.199219 45.421875 67.226562 45.757812 67.261719 46.097656 C 67.269531 46.191406 67.269531 46.191406 67.277344 46.285156 C 67.3125 46.625 67.355469 46.960938 67.40625 47.296875 C 67.460938 47.660156 67.488281 48.023438 67.503906 48.390625 C 67.535156 48.945312 67.597656 49.5 67.660156 50.054688 C 67.710938 50.507812 67.753906 50.960938 67.785156 51.414062 C 67.796875 51.574219 67.828125 51.710938 67.867188 51.863281 C 67.878906 52.042969 67.890625 52.222656 67.902344 52.402344 C 67.914062 52.699219 67.933594 52.996094 67.96875 53.292969 C 68.09375 54.496094 68.125 55.875 67.800781 57.042969 C 67.789062 57.089844 67.773438 57.136719 67.761719 57.1875 C 67.550781 57.921875 67.25 58.574219 66.871094 59.234375 C 66.8125 59.347656 66.753906 59.460938 66.691406 59.574219 C 66.5625 59.8125 66.402344 59.976562 66.207031 60.164062 C 66.101562 60.304688 66 60.445312 65.898438 60.589844 C 65.867188 60.625 65.839844 60.660156 65.808594 60.695312 C 65.765625 60.695312 65.722656 60.695312 65.675781 60.695312 C 65.652344 60.753906 65.652344 60.753906 65.628906 60.808594 C 65.359375 61.289062 64.796875 61.628906 64.351562 61.929688 C 64.207031 62.023438 64.207031 62.023438 64.082031 62.15625 C 63.378906 62.582031 62.625 62.949219 61.824219 63.152344 C 61.78125 63.164062 61.738281 63.175781 61.691406 63.1875 C 61.496094 63.234375 61.300781 63.277344 61.101562 63.320312 C 60.949219 63.351562 60.949219 63.351562 60.761719 63.417969 C 60.652344 63.433594 60.539062 63.449219 60.429688 63.460938 C 60.371094 63.464844 60.316406 63.472656 60.253906 63.480469 C 60.097656 63.484375 60.097656 63.484375 59.898438 63.417969 C 59.875 63.460938 59.855469 63.503906 59.832031 63.550781 C 45.785156 63.550781 31.738281 63.550781 17.265625 63.550781 C 17.265625 63.507812 17.265625 63.464844 17.265625 63.417969 C 17.222656 63.421875 17.179688 63.425781 17.136719 63.425781 C 16.679688 63.445312 16.261719 63.390625 15.816406 63.296875 C 15.765625 63.285156 15.710938 63.277344 15.65625 63.265625 C 15.332031 63.191406 15.046875 63.089844 14.742188 62.953125 C 14.644531 62.917969 14.546875 62.882812 14.449219 62.84375 C 13.308594 62.390625 12.253906 61.65625 11.421875 60.761719 C 11.421875 60.71875 11.421875 60.675781 11.421875 60.628906 C 11.355469 60.605469 11.289062 60.585938 11.222656 60.5625 C 11.222656 60.519531 11.222656 60.476562 11.222656 60.429688 C 11.179688 60.429688 11.136719 60.429688 11.089844 60.429688 C 11.007812 60.324219 11.007812 60.324219 10.910156 60.175781 C 10.875 60.121094 10.839844 60.066406 10.804688 60.011719 C 10.765625 59.953125 10.730469 59.890625 10.691406 59.832031 C 10.652344 59.777344 10.617188 59.71875 10.578125 59.664062 C 9.578125 58.140625 9.167969 56.558594 9.03125 54.761719 C 9 54.355469 8.96875 53.953125 8.933594 53.550781 C 8.925781 53.5 8.921875 53.445312 8.917969 53.394531 C 8.902344 53.246094 8.902344 53.246094 8.832031 53.058594 C 8.855469 53.015625 8.875 52.972656 8.898438 52.925781 C 8.828125 52.921875 8.828125 52.921875 8.753906 52.917969 C 8.308594 52.890625 7.890625 52.816406 7.457031 52.710938 C 7.238281 52.660156 7.019531 52.628906 6.792969 52.597656 C 6.402344 52.542969 6.070312 52.421875 5.710938 52.261719 C 5.46875 52.167969 5.230469 52.078125 4.980469 52.003906 C 4.753906 51.917969 4.570312 51.804688 4.371094 51.671875 C 4.242188 51.585938 4.242188 51.585938 4.050781 51.53125 C 4.050781 51.488281 4.050781 51.445312 4.050781 51.398438 C 4.003906 51.382812 3.960938 51.367188 3.910156 51.351562 C 3.675781 51.246094 3.488281 51.105469 3.289062 50.945312 C 3.246094 50.914062 3.207031 50.882812 3.164062 50.847656 C 2.429688 50.253906 1.832031 49.609375 1.328125 48.808594 C 1.300781 48.769531 1.277344 48.730469 1.25 48.6875 C 0.894531 48.128906 0.597656 47.585938 0.398438 46.949219 C 0.382812 46.898438 0.363281 46.851562 0.347656 46.800781 C 0.03125 45.875 -0.0390625 44.980469 -0.0390625 44.015625 C -0.0390625 43.933594 -0.0390625 43.933594 -0.0390625 43.847656 C -0.0390625 43.117188 0.03125 42.410156 0.140625 41.683594 C 0.207031 41.265625 0.257812 40.839844 0.3125 40.417969 C 0.320312 40.339844 0.332031 40.261719 0.339844 40.179688 C 0.363281 40.011719 0.382812 39.84375 0.402344 39.675781 C 0.460938 39.214844 0.515625 38.75 0.574219 38.289062 C 0.585938 38.214844 0.585938 38.214844 0.59375 38.140625 C 0.695312 37.3125 0.804688 36.484375 0.914062 35.65625 C 0.929688 35.539062 0.945312 35.421875 0.960938 35.304688 C 1.027344 34.789062 1.09375 34.273438 1.164062 33.757812 C 1.191406 33.542969 1.21875 33.328125 1.246094 33.113281 C 1.261719 33.015625 1.273438 32.914062 1.289062 32.816406 C 1.382812 32.117188 1.382812 32.117188 1.394531 31.410156 C 1.4375 31.410156 1.480469 31.410156 1.527344 31.410156 C 1.496094 31.148438 1.496094 31.148438 1.460938 30.878906 C 1.503906 30.878906 1.546875 30.878906 1.59375 30.878906 C 1.5625 30.617188 1.5625 30.617188 1.527344 30.347656 C 1.570312 30.347656 1.613281 30.347656 1.660156 30.347656 C 1.65625 30.304688 1.65625 30.265625 1.652344 30.222656 C 1.632812 29.578125 1.734375 28.953125 1.835938 28.316406 C 1.855469 28.179688 1.875 28.042969 1.890625 27.902344 C 2.03125 26.765625 2.628906 25.753906 3.519531 25.035156 C 4.5 24.328125 5.710938 24.027344 6.910156 24.191406 C 8.210938 24.421875 9.1875 25.113281 9.988281 26.152344 C 10.433594 26.800781 10.539062 27.613281 10.632812 28.375 C 10.644531 28.460938 10.65625 28.546875 10.667969 28.636719 C 10.742188 29.25 10.800781 29.863281 10.847656 30.480469 C 10.875 30.824219 10.90625 31.164062 10.960938 31.503906 C 11.019531 31.875 11.042969 32.246094 11.0625 32.617188 C 11.117188 33.636719 11.234375 34.648438 11.375 35.65625 C 11.414062 35.960938 11.4375 36.261719 11.449219 36.570312 C 11.507812 37.640625 11.628906 38.710938 11.773438 39.773438 C 11.8125 40.078125 11.835938 40.378906 11.847656 40.6875 C 11.90625 41.757812 12.027344 42.828125 12.171875 43.890625 C 12.210938 44.195312 12.234375 44.496094 12.246094 44.804688 C 12.304688 45.875 12.425781 46.945312 12.570312 48.007812 C 12.609375 48.3125 12.632812 48.613281 12.644531 48.921875 C 12.703125 49.992188 12.824219 51.0625 12.96875 52.125 C 13.007812 52.429688 13.03125 52.730469 13.042969 53.039062 C 13.148438 55.539062 13.148438 55.539062 14.277344 57.707031 C 14.3125 57.75 14.347656 57.792969 14.382812 57.839844 C 15.09375 58.71875 16.203125 59.21875 17.308594 59.351562 C 17.601562 59.378906 17.894531 59.375 18.1875 59.375 C 18.292969 59.375 18.292969 59.375 18.402344 59.375 C 18.644531 59.375 18.882812 59.375 19.125 59.375 C 19.300781 59.375 19.472656 59.375 19.648438 59.378906 C 20.074219 59.378906 20.503906 59.378906 20.929688 59.378906 C 21.445312 59.378906 21.957031 59.378906 22.46875 59.378906 C 23.710938 59.378906 24.949219 59.378906 26.1875 59.378906 C 26.773438 59.378906 27.363281 59.382812 27.949219 59.382812 C 29.957031 59.382812 31.964844 59.382812 33.972656 59.382812 C 34.097656 59.382812 34.226562 59.382812 34.351562 59.382812 C 34.476562 59.382812 34.605469 59.382812 34.730469 59.382812 C 34.984375 59.382812 35.238281 59.382812 35.492188 59.382812 C 35.585938 59.382812 35.585938 59.382812 35.679688 59.382812 C 37.71875 59.382812 39.757812 59.382812 41.792969 59.386719 C 43.949219 59.386719 46.105469 59.386719 48.257812 59.386719 C 48.496094 59.386719 48.730469 59.386719 48.96875 59.390625 C 49.027344 59.390625 49.085938 59.390625 49.144531 59.390625 C 50.082031 59.390625 51.019531 59.390625 51.957031 59.390625 C 52.898438 59.390625 53.839844 59.390625 54.78125 59.390625 C 55.339844 59.390625 55.898438 59.390625 56.460938 59.390625 C 56.832031 59.394531 57.207031 59.394531 57.582031 59.390625 C 57.792969 59.390625 58.007812 59.390625 58.21875 59.390625 C 59.949219 59.398438 61.3125 59.207031 62.644531 58.015625 C 62.777344 57.882812 62.863281 57.738281 62.953125 57.574219 C 62.996094 57.574219 63.039062 57.574219 63.085938 57.574219 C 63.105469 57.527344 63.121094 57.480469 63.140625 57.433594 C 63.222656 57.234375 63.316406 57.050781 63.414062 56.863281 C 63.878906 55.933594 63.980469 54.957031 63.949219 53.921875 C 63.90625 53.898438 63.863281 53.878906 63.816406 53.855469 C 63.816406 53.792969 63.816406 53.792969 63.820312 53.730469 C 63.820312 53.679688 63.820312 53.625 63.820312 53.570312 C 63.820312 53.488281 63.820312 53.488281 63.824219 53.40625 C 63.824219 53.246094 63.824219 53.246094 63.75 53.058594 C 63.75 52.929688 63.75 52.800781 63.75 52.671875 C 63.75 52.445312 63.71875 52.222656 63.6875 51.996094 C 63.675781 51.90625 63.664062 51.820312 63.652344 51.730469 C 63.628906 51.554688 63.605469 51.378906 63.578125 51.203125 C 63.542969 50.914062 63.542969 50.628906 63.546875 50.335938 C 63.546875 50.285156 63.546875 50.234375 63.546875 50.179688 C 63.546875 50.054688 63.550781 49.929688 63.550781 49.804688 C 63.507812 49.78125 63.464844 49.761719 63.417969 49.738281 C 63.417969 49.675781 63.417969 49.675781 63.421875 49.613281 C 63.421875 49.5625 63.421875 49.507812 63.421875 49.453125 C 63.421875 49.371094 63.421875 49.371094 63.425781 49.289062 C 63.425781 49.128906 63.425781 49.128906 63.351562 48.941406 C 63.351562 48.8125 63.351562 48.683594 63.351562 48.554688 C 63.351562 48.328125 63.320312 48.105469 63.289062 47.878906 C 63.277344 47.789062 63.265625 47.703125 63.253906 47.613281 C 63.230469 47.4375 63.207031 47.261719 63.179688 47.085938 C 63.144531 46.796875 63.144531 46.511719 63.148438 46.21875 C 63.148438 46.167969 63.148438 46.117188 63.148438 46.0625 C 63.148438 45.9375 63.152344 45.8125 63.152344 45.6875 C 63.109375 45.664062 63.066406 45.644531 63.019531 45.621094 C 63.019531 45.558594 63.019531 45.558594 63.023438 45.496094 C 63.023438 45.445312 63.023438 45.390625 63.023438 45.335938 C 63.023438 45.253906 63.023438 45.253906 63.027344 45.171875 C 63.027344 45.011719 63.027344 45.011719 62.953125 44.824219 C 62.953125 44.695312 62.953125 44.566406 62.953125 44.4375 C 62.953125 44.210938 62.921875 43.988281 62.890625 43.761719 C 62.878906 43.671875 62.867188 43.585938 62.855469 43.496094 C 62.832031 43.320312 62.808594 43.144531 62.78125 42.96875 C 62.746094 42.679688 62.746094 42.394531 62.75 42.101562 C 62.75 42.050781 62.75 42 62.75 41.945312 C 62.75 41.820312 62.753906 41.695312 62.753906 41.570312 C 62.710938 41.546875 62.667969 41.527344 62.621094 41.503906 C 62.621094 41.441406 62.621094 41.441406 62.625 41.378906 C 62.625 41.328125 62.625 41.273438 62.625 41.21875 C 62.625 41.136719 62.625 41.136719 62.628906 41.054688 C 62.628906 40.894531 62.628906 40.894531 62.554688 40.707031 C 62.554688 40.578125 62.554688 40.449219 62.554688 40.320312 C 62.554688 40.09375 62.523438 39.871094 62.492188 39.644531 C 62.480469 39.554688 62.46875 39.46875 62.457031 39.378906 C 62.433594 39.203125 62.410156 39.027344 62.382812 38.851562 C 62.347656 38.5625 62.347656 38.277344 62.351562 37.984375 C 62.351562 37.933594 62.351562 37.882812 62.351562 37.828125 C 62.351562 37.703125 62.355469 37.578125 62.355469 37.453125 C 62.3125 37.429688 62.269531 37.410156 62.222656 37.386719 C 62.222656 37.324219 62.222656 37.324219 62.226562 37.261719 C 62.226562 37.210938 62.226562 37.15625 62.226562 37.101562 C 62.226562 37.046875 62.226562 36.992188 62.230469 36.9375 C 62.230469 36.777344 62.230469 36.777344 62.15625 36.589844 C 62.15625 36.460938 62.15625 36.332031 62.15625 36.203125 C 62.15625 35.976562 62.125 35.753906 62.09375 35.527344 C 62.082031 35.4375 62.070312 35.351562 62.058594 35.261719 C 62.035156 35.085938 62.011719 34.910156 61.984375 34.734375 C 61.949219 34.445312 61.949219 34.160156 61.953125 33.867188 C 61.953125 33.816406 61.953125 33.765625 61.953125 33.710938 C 61.953125 33.585938 61.957031 33.460938 61.957031 33.335938 C 61.914062 33.3125 61.871094 33.292969 61.824219 33.269531 C 61.824219 33.207031 61.824219 33.207031 61.828125 33.144531 C 61.828125 33.09375 61.828125 33.039062 61.828125 32.984375 C 61.828125 32.929688 61.828125 32.875 61.832031 32.820312 C 61.832031 32.660156 61.832031 32.660156 61.757812 32.472656 C 61.757812 32.34375 61.757812 32.214844 61.757812 32.085938 C 61.757812 31.859375 61.726562 31.636719 61.695312 31.410156 C 61.683594 31.320312 61.671875 31.234375 61.660156 31.144531 C 61.636719 30.96875 61.613281 30.792969 61.585938 30.617188 C 61.550781 30.328125 61.550781 30.042969 61.554688 29.75 C 61.554688 29.699219 61.554688 29.648438 61.554688 29.59375 C 61.554688 29.46875 61.558594 29.34375 61.558594 29.21875 C 61.515625 29.195312 61.472656 29.175781 61.425781 29.152344 C 61.425781 29.089844 61.425781 29.089844 61.429688 29.027344 C 61.429688 28.976562 61.429688 28.921875 61.429688 28.867188 C 61.429688 28.8125 61.429688 28.757812 61.433594 28.703125 C 61.433594 28.542969 61.433594 28.542969 61.359375 28.355469 C 61.359375 28.226562 61.359375 28.097656 61.359375 27.96875 C 61.359375 27.742188 61.328125 27.519531 61.296875 27.292969 C 61.285156 27.203125 61.273438 27.117188 61.261719 27.027344 C 61.238281 26.851562 61.214844 26.675781 61.1875 26.5 C 61.152344 26.210938 61.152344 25.925781 61.15625 25.632812 C 61.15625 25.582031 61.15625 25.53125 61.15625 25.476562 C 61.15625 25.351562 61.160156 25.226562 61.160156 25.101562 C 61.117188 25.078125 61.074219 25.058594 61.027344 25.035156 C 61.027344 24.972656 61.027344 24.972656 61.03125 24.910156 C 61.03125 24.859375 61.03125 24.804688 61.03125 24.75 C 61.03125 24.695312 61.03125 24.640625 61.035156 24.585938 C 61.035156 24.425781 61.035156 24.425781 60.960938 24.238281 C 60.960938 24.109375 60.960938 23.980469 60.960938 23.851562 C 60.960938 23.625 60.929688 23.402344 60.898438 23.175781 C 60.886719 23.085938 60.875 23 60.863281 22.910156 C 60.839844 22.734375 60.816406 22.558594 60.789062 22.382812 C 60.753906 22.09375 60.753906 21.808594 60.757812 21.515625 C 60.757812 21.464844 60.757812 21.414062 60.757812 21.359375 C 60.757812 21.234375 60.761719 21.109375 60.761719 20.984375 C 60.71875 20.960938 60.675781 20.941406 60.628906 20.917969 C 60.628906 20.855469 60.628906 20.855469 60.632812 20.792969 C 60.632812 20.742188 60.632812 20.6875 60.632812 20.632812 C 60.632812 20.550781 60.632812 20.550781 60.636719 20.46875 C 60.636719 20.308594 60.636719 20.308594 60.5625 20.121094 C 60.5625 19.992188 60.5625 19.863281 60.5625 19.734375 C 60.5625 19.507812 60.53125 19.285156 60.5 19.058594 C 60.488281 18.96875 60.476562 18.882812 60.464844 18.792969 C 60.441406 18.617188 60.417969 18.441406 60.390625 18.265625 C 60.355469 17.976562 60.355469 17.691406 60.359375 17.398438 C 60.359375 17.347656 60.359375 17.296875 60.359375 17.242188 C 60.359375 17.117188 60.363281 16.992188 60.363281 16.867188 C 60.320312 16.84375 60.277344 16.824219 60.230469 16.800781 C 60.230469 16.738281 60.230469 16.738281 60.234375 16.675781 C 60.234375 16.625 60.234375 16.570312 60.234375 16.515625 C 60.234375 16.433594 60.234375 16.433594 60.238281 16.351562 C 60.238281 16.191406 60.238281 16.191406 60.164062 16.003906 C 60.164062 15.875 60.164062 15.746094 60.164062 15.617188 C 60.164062 15.390625 60.132812 15.167969 60.101562 14.941406 C 60.089844 14.851562 60.078125 14.765625 60.066406 14.675781 C 60.042969 14.5 60.019531 14.324219 59.992188 14.148438 C 59.957031 13.859375 59.957031 13.574219 59.960938 13.28125 C 59.960938 13.230469 59.960938 13.179688 59.960938 13.125 C 59.960938 13 59.964844 12.875 59.964844 12.75 C 59.921875 12.726562 59.878906 12.707031 59.832031 12.683594 C 59.816406 12.542969 59.800781 12.402344 59.789062 12.261719 C 59.757812 12.015625 59.683594 11.792969 59.609375 11.558594 C 59.566406 11.421875 59.566406 11.421875 59.566406 11.289062 C 59.523438 11.265625 59.480469 11.246094 59.433594 11.222656 C 59.386719 11.128906 59.34375 11.03125 59.304688 10.9375 C 58.824219 9.941406 57.894531 9.328125 56.910156 8.898438 C 56.273438 8.679688 55.664062 8.621094 54.996094 8.625 C 54.890625 8.625 54.890625 8.625 54.777344 8.621094 C 54.535156 8.621094 54.296875 8.621094 54.054688 8.621094 C 53.878906 8.621094 53.703125 8.621094 53.527344 8.621094 C 53.148438 8.621094 52.765625 8.621094 52.386719 8.621094 C 51.820312 8.621094 51.253906 8.617188 50.6875 8.617188 C 49.734375 8.617188 48.785156 8.613281 47.832031 8.613281 C 46.890625 8.613281 45.945312 8.609375 45.003906 8.609375 C 44.945312 8.609375 44.886719 8.609375 44.824219 8.609375 C 44.527344 8.609375 44.230469 8.609375 43.933594 8.609375 C 41.824219 8.605469 39.714844 8.601562 37.605469 8.597656 C 35.558594 8.597656 33.511719 8.59375 31.460938 8.589844 C 31.398438 8.589844 31.335938 8.589844 31.269531 8.589844 C 30.636719 8.589844 30 8.589844 29.367188 8.589844 C 28.078125 8.585938 26.785156 8.585938 25.492188 8.582031 C 25.433594 8.582031 25.375 8.582031 25.3125 8.582031 C 21.347656 8.578125 17.378906 8.570312 13.414062 8.566406 C 13.390625 8.609375 13.371094 8.652344 13.347656 8.699219 C 13.203125 8.71875 13.203125 8.71875 13.019531 8.722656 C 12.621094 8.753906 12.3125 8.863281 11.953125 9.03125 C 11.890625 9.058594 11.828125 9.085938 11.761719 9.113281 C 10.941406 9.480469 10.21875 10.136719 9.828125 10.957031 C 9.785156 10.957031 9.742188 10.957031 9.695312 10.957031 C 9.625 11.15625 9.558594 11.355469 9.496094 11.554688 C 9.472656 11.625 9.449219 11.695312 9.421875 11.769531 C 9.101562 12.816406 9.203125 13.871094 9.363281 14.941406 C 9.421875 15.363281 9.453125 15.78125 9.476562 16.203125 C 9.484375 16.398438 9.484375 16.398438 9.5625 16.535156 C 9.617188 16.535156 9.617188 16.535156 9.675781 16.535156 C 13.691406 16.539062 17.707031 16.542969 21.726562 16.546875 C 21.785156 16.546875 21.84375 16.546875 21.90625 16.546875 C 23.210938 16.546875 24.515625 16.550781 25.820312 16.550781 C 26.457031 16.550781 27.097656 16.550781 27.738281 16.550781 C 27.800781 16.550781 27.863281 16.550781 27.929688 16.554688 C 29.992188 16.554688 32.054688 16.558594 34.117188 16.558594 C 36.238281 16.558594 38.355469 16.5625 40.476562 16.566406 C 40.777344 16.566406 41.074219 16.566406 41.375 16.566406 C 41.433594 16.566406 41.492188 16.566406 41.554688 16.566406 C 42.5 16.566406 43.449219 16.566406 44.398438 16.566406 C 45.351562 16.570312 46.304688 16.570312 47.257812 16.570312 C 47.824219 16.574219 48.394531 16.574219 48.960938 16.574219 C 49.335938 16.574219 49.714844 16.574219 50.09375 16.574219 C 50.308594 16.574219 50.527344 16.574219 50.742188 16.574219 C 50.972656 16.574219 51.207031 16.574219 51.441406 16.574219 C 51.507812 16.574219 51.574219 16.574219 51.640625 16.574219 C 52.375 16.582031 52.996094 16.734375 53.523438 17.265625 C 53.980469 17.84375 54.070312 18.46875 53.988281 19.191406 C 53.804688 19.722656 53.542969 20.132812 53.0625 20.433594 C 53.019531 20.460938 52.976562 20.488281 52.933594 20.515625 C 52.679688 20.644531 52.421875 20.660156 52.140625 20.660156 C 52.078125 20.660156 52.015625 20.660156 51.953125 20.660156 C 51.882812 20.660156 51.816406 20.660156 51.742188 20.660156 C 51.671875 20.660156 51.597656 20.660156 51.519531 20.660156 C 51.273438 20.660156 51.023438 20.660156 50.777344 20.660156 C 50.597656 20.660156 50.417969 20.660156 50.242188 20.660156 C 49.851562 20.660156 49.460938 20.664062 49.070312 20.660156 C 48.492188 20.660156 47.910156 20.664062 47.332031 20.664062 C 46.234375 20.664062 45.140625 20.664062 44.042969 20.664062 C 43.199219 20.664062 42.351562 20.664062 41.503906 20.664062 C 41.261719 20.664062 41.019531 20.664062 40.773438 20.664062 C 40.683594 20.664062 40.683594 20.664062 40.59375 20.664062 C 38.890625 20.664062 37.1875 20.664062 35.484375 20.664062 C 35.417969 20.664062 35.355469 20.664062 35.289062 20.664062 C 34.964844 20.664062 34.636719 20.664062 34.3125 20.664062 C 34.214844 20.664062 34.214844 20.664062 34.117188 20.664062 C 33.984375 20.664062 33.855469 20.664062 33.726562 20.664062 C 31.691406 20.664062 29.65625 20.664062 27.625 20.664062 C 25.339844 20.667969 23.054688 20.667969 20.769531 20.667969 C 20.527344 20.667969 20.285156 20.667969 20.039062 20.667969 C 19.980469 20.667969 19.917969 20.667969 19.859375 20.667969 C 18.894531 20.667969 17.925781 20.667969 16.960938 20.667969 C 15.992188 20.667969 15.023438 20.667969 14.050781 20.667969 C 13.476562 20.667969 12.898438 20.667969 12.320312 20.667969 C 11.9375 20.667969 11.550781 20.667969 11.167969 20.667969 C 10.945312 20.667969 10.726562 20.667969 10.507812 20.667969 C 10.273438 20.667969 10.035156 20.667969 9.796875 20.667969 C 9.695312 20.667969 9.695312 20.667969 9.59375 20.667969 C 8.988281 20.667969 8.40625 20.609375 7.871094 20.316406 C 7.679688 20.214844 7.507812 20.121094 7.304688 20.054688 C 7.304688 20.011719 7.304688 19.96875 7.304688 19.921875 C 7.195312 19.878906 7.085938 19.835938 6.972656 19.789062 C 6.972656 19.746094 6.972656 19.703125 6.972656 19.65625 C 6.917969 19.632812 6.917969 19.632812 6.859375 19.609375 C 6.496094 19.402344 6.273438 19.066406 6.054688 18.71875 C 6.027344 18.675781 6 18.636719 5.972656 18.59375 C 5.777344 18.285156 5.777344 18.285156 5.777344 18.0625 C 5.734375 18.039062 5.691406 18.019531 5.644531 17.996094 C 5.566406 17.792969 5.523438 17.578125 5.472656 17.367188 C 5.460938 17.300781 5.445312 17.238281 5.429688 17.175781 C 5.320312 16.691406 5.273438 16.230469 5.257812 15.738281 C 5.246094 15.488281 5.214844 15.25 5.175781 15.003906 C 5.011719 13.757812 5.003906 12.375 5.3125 11.15625 C 5.324219 11.09375 5.339844 11.03125 5.355469 10.964844 C 5.480469 10.429688 5.710938 9.925781 5.925781 9.417969 C 5.988281 9.269531 6.050781 9.117188 6.109375 8.964844 C 6.152344 8.964844 6.195312 8.964844 6.242188 8.964844 C 6.257812 8.921875 6.273438 8.878906 6.289062 8.835938 C 6.40625 8.558594 6.558594 8.296875 6.707031 8.035156 C 6.75 8.035156 6.792969 8.035156 6.839844 8.035156 C 6.855469 7.996094 6.871094 7.960938 6.890625 7.921875 C 7.058594 7.609375 7.328125 7.363281 7.570312 7.105469 C 7.613281 7.054688 7.65625 7.007812 7.703125 6.957031 C 9.621094 4.902344 12.328125 4.484375 14.996094 4.492188 Z M 6.109375 28.222656 C 5.855469 28.507812 5.847656 28.882812 5.804688 29.246094 C 5.796875 29.316406 5.785156 29.386719 5.777344 29.460938 C 5.75 29.691406 5.71875 29.921875 5.691406 30.152344 C 5.671875 30.316406 5.652344 30.476562 5.632812 30.636719 C 5.578125 31.0625 5.527344 31.492188 5.472656 31.917969 C 5.429688 32.261719 5.386719 32.605469 5.34375 32.949219 C 5.292969 33.367188 5.242188 33.78125 5.191406 34.195312 C 5.175781 34.3125 5.175781 34.3125 5.160156 34.429688 C 5.0625 35.222656 4.964844 36.019531 4.890625 36.8125 C 4.859375 37.175781 4.8125 37.53125 4.757812 37.890625 C 4.75 37.953125 4.742188 38.015625 4.730469 38.078125 C 4.722656 38.132812 4.714844 38.183594 4.707031 38.238281 C 4.597656 38.992188 4.496094 39.746094 4.398438 40.5 C 4.363281 40.757812 4.332031 41.015625 4.296875 41.273438 C 3.855469 44.175781 3.855469 44.175781 4.914062 46.816406 C 5.882812 48.042969 7.003906 48.496094 8.5 48.742188 C 8.492188 48.589844 8.480469 48.4375 8.472656 48.285156 C 8.464844 48.199219 8.460938 48.117188 8.453125 48.027344 C 8.4375 47.769531 8.410156 47.511719 8.386719 47.253906 C 8.347656 46.90625 8.316406 46.558594 8.285156 46.210938 C 8.257812 45.925781 8.230469 45.640625 8.203125 45.355469 C 8.160156 44.953125 8.121094 44.550781 8.085938 44.152344 C 8.058594 43.867188 8.03125 43.582031 8.003906 43.296875 C 7.960938 42.894531 7.921875 42.492188 7.886719 42.09375 C 7.859375 41.808594 7.832031 41.523438 7.804688 41.238281 C 7.761719 40.835938 7.722656 40.433594 7.6875 40.035156 C 7.660156 39.75 7.632812 39.464844 7.605469 39.179688 C 7.5625 38.777344 7.523438 38.375 7.488281 37.976562 C 7.460938 37.691406 7.433594 37.40625 7.40625 37.121094 C 7.363281 36.71875 7.324219 36.316406 7.289062 35.917969 C 7.261719 35.632812 7.234375 35.347656 7.207031 35.0625 C 7.164062 34.660156 7.125 34.257812 7.089844 33.859375 C 7.0625 33.574219 7.035156 33.289062 7.007812 33.003906 C 6.964844 32.601562 6.925781 32.199219 6.890625 31.800781 C 6.863281 31.523438 6.835938 31.246094 6.808594 30.96875 C 6.785156 30.726562 6.761719 30.484375 6.738281 30.238281 C 6.722656 30.058594 6.703125 29.875 6.6875 29.695312 C 6.679688 29.601562 6.667969 29.507812 6.660156 29.414062 C 6.648438 29.277344 6.636719 29.136719 6.621094 29 C 6.613281 28.921875 6.605469 28.839844 6.597656 28.753906 C 6.582031 28.550781 6.582031 28.550781 6.507812 28.355469 C 6.464844 28.355469 6.421875 28.355469 6.375 28.355469 C 6.375 28.3125 6.375 28.269531 6.375 28.222656 C 6.289062 28.222656 6.199219 28.222656 6.109375 28.222656 Z M 6.109375 28.222656 "/>
<path style=" stroke:none;fill-rule:nonzero;fill:rgb(96.078432%,69.01961%,9.411765%);fill-opacity:1;" d="M 51.132812 37.253906 C 51.269531 37.28125 51.269531 37.28125 51.417969 37.285156 C 51.476562 37.289062 51.53125 37.296875 51.589844 37.300781 C 51.648438 37.304688 51.707031 37.308594 51.769531 37.3125 C 52.402344 37.367188 52.988281 37.449219 53.457031 37.917969 C 53.457031 37.960938 53.457031 38.003906 53.457031 38.050781 C 53.5 38.050781 53.542969 38.050781 53.589844 38.050781 C 53.855469 38.5 53.855469 38.5 53.855469 38.648438 C 53.898438 38.671875 53.941406 38.691406 53.988281 38.714844 C 54.003906 38.84375 54.023438 38.972656 54.03125 39.101562 C 54.082031 39.417969 54.207031 39.617188 54.425781 39.847656 C 54.75 40.203125 55.035156 40.582031 55.316406 40.972656 C 55.351562 41.023438 55.390625 41.074219 55.429688 41.125 C 56.015625 41.960938 56.304688 42.929688 56.546875 43.910156 C 56.570312 43.988281 56.589844 44.070312 56.617188 44.148438 C 56.65625 44.351562 56.644531 44.550781 56.644531 44.757812 C 56.65625 44.832031 56.667969 44.910156 56.679688 44.984375 C 56.769531 45.636719 56.769531 45.636719 56.644531 45.886719 C 56.628906 46 56.617188 46.109375 56.605469 46.222656 C 56.449219 47.695312 55.933594 48.886719 55.050781 50.070312 C 55.015625 50.121094 54.980469 50.171875 54.941406 50.226562 C 54.914062 50.261719 54.882812 50.296875 54.851562 50.335938 C 54.808594 50.335938 54.765625 50.335938 54.71875 50.335938 C 54.71875 50.402344 54.71875 50.46875 54.71875 50.535156 C 54.363281 50.867188 54.363281 50.867188 54.1875 50.867188 C 54.164062 50.933594 54.144531 51 54.121094 51.066406 C 54.078125 51.066406 54.035156 51.066406 53.988281 51.066406 C 53.988281 51.109375 53.988281 51.152344 53.988281 51.199219 C 53.921875 51.199219 53.855469 51.199219 53.789062 51.199219 C 53.789062 51.242188 53.789062 51.285156 53.789062 51.332031 C 53.675781 51.417969 53.675781 51.417969 53.53125 51.507812 C 53.484375 51.535156 53.4375 51.566406 53.386719 51.597656 C 53.257812 51.664062 53.257812 51.664062 53.125 51.664062 C 53.125 51.707031 53.125 51.75 53.125 51.796875 C 52.96875 51.871094 52.8125 51.945312 52.65625 52.015625 C 52.613281 52.039062 52.570312 52.058594 52.523438 52.078125 C 51.65625 52.484375 51.65625 52.484375 51.265625 52.59375 C 51.222656 52.570312 51.179688 52.550781 51.132812 52.527344 C 51.132812 52.570312 51.132812 52.613281 51.132812 52.660156 C 50.960938 52.691406 50.785156 52.722656 50.613281 52.753906 C 50.476562 52.777344 50.34375 52.804688 50.210938 52.832031 C 49.84375 52.902344 49.511719 52.933594 49.140625 52.925781 C 49.117188 52.949219 49.097656 52.96875 49.074219 52.992188 C 48.953125 52.996094 48.828125 52.996094 48.703125 52.996094 C 48.636719 52.996094 48.570312 52.996094 48.5 52.996094 C 48.421875 52.992188 48.421875 52.992188 48.34375 52.992188 C 48.34375 52.949219 48.34375 52.90625 48.34375 52.859375 C 48.273438 52.871094 48.203125 52.882812 48.132812 52.898438 C 47.894531 52.925781 47.773438 52.910156 47.546875 52.859375 C 47.4375 52.835938 47.4375 52.835938 47.328125 52.8125 C 46.523438 52.640625 45.820312 52.433594 45.082031 52.066406 C 45.035156 52.042969 44.988281 52.023438 44.941406 52 C 44.675781 51.867188 44.457031 51.722656 44.226562 51.53125 C 44.144531 51.480469 44.058594 51.429688 43.972656 51.382812 C 43.902344 51.34375 43.832031 51.304688 43.761719 51.265625 C 43.761719 51.222656 43.761719 51.179688 43.761719 51.132812 C 43.722656 51.113281 43.683594 51.097656 43.644531 51.078125 C 43.492188 51 43.363281 50.914062 43.230469 50.800781 C 43.230469 50.757812 43.230469 50.714844 43.230469 50.667969 C 43.1875 50.667969 43.144531 50.667969 43.097656 50.667969 C 43.097656 50.625 43.097656 50.582031 43.097656 50.535156 C 43.054688 50.535156 43.011719 50.535156 42.964844 50.535156 C 42.660156 50.238281 42.402344 49.890625 42.167969 49.539062 C 42.167969 49.496094 42.167969 49.453125 42.167969 49.40625 C 42.125 49.40625 42.082031 49.40625 42.035156 49.40625 C 41.003906 47.671875 41.003906 47.671875 41.039062 46.882812 C 40.996094 46.859375 40.953125 46.839844 40.90625 46.816406 C 40.871094 46.675781 40.871094 46.675781 40.851562 46.492188 C 40.839844 46.425781 40.832031 46.359375 40.824219 46.289062 C 40.816406 46.21875 40.808594 46.148438 40.796875 46.074219 C 40.789062 46 40.78125 45.929688 40.773438 45.855469 C 40.695312 45.167969 40.667969 44.515625 40.773438 43.828125 C 40.785156 43.761719 40.785156 43.761719 40.792969 43.695312 C 40.816406 43.550781 40.839844 43.410156 40.863281 43.269531 C 40.871094 43.21875 40.878906 43.171875 40.886719 43.125 C 40.945312 42.789062 41.042969 42.484375 41.171875 42.167969 C 41.195312 42.101562 41.222656 42.039062 41.246094 41.96875 C 41.761719 40.691406 42.59375 39.59375 43.761719 38.847656 C 43.804688 38.847656 43.847656 38.847656 43.894531 38.847656 C 43.867188 38.792969 43.839844 38.742188 43.808594 38.6875 C 43.773438 38.617188 43.738281 38.546875 43.699219 38.472656 C 43.664062 38.40625 43.628906 38.335938 43.589844 38.265625 C 43.425781 37.886719 43.425781 37.570312 43.457031 37.164062 C 43.464844 37.078125 43.472656 36.996094 43.480469 36.910156 C 43.484375 36.847656 43.492188 36.785156 43.496094 36.722656 C 43.539062 36.722656 43.582031 36.722656 43.628906 36.722656 C 43.652344 36.589844 43.671875 36.460938 43.695312 36.324219 C 43.738281 36.324219 43.78125 36.324219 43.828125 36.324219 C 43.84375 36.285156 43.863281 36.246094 43.882812 36.203125 C 44.09375 35.816406 44.484375 35.605469 44.890625 35.460938 C 46.75 34.984375 49.632812 36.253906 51.132812 37.253906 Z M 49.671875 41.4375 C 49.453125 41.441406 49.238281 41.4375 49.019531 41.433594 C 48.839844 41.4375 48.710938 41.457031 48.542969 41.503906 C 48.460938 41.511719 48.382812 41.519531 48.296875 41.523438 C 47.480469 41.613281 46.734375 41.820312 46.019531 42.234375 C 46.019531 42.277344 46.019531 42.320312 46.019531 42.367188 C 45.945312 42.390625 45.945312 42.390625 45.871094 42.414062 C 45.652344 42.515625 45.554688 42.632812 45.421875 42.832031 C 45.421875 42.875 45.421875 42.917969 45.421875 42.964844 C 45.378906 42.964844 45.335938 42.964844 45.289062 42.964844 C 45.097656 43.3125 44.984375 43.617188 44.917969 44.007812 C 44.890625 44.160156 44.890625 44.160156 44.855469 44.285156 C 44.664062 45.15625 44.894531 46.105469 45.289062 46.882812 C 45.332031 46.882812 45.375 46.882812 45.421875 46.882812 C 45.433594 46.941406 45.433594 46.941406 45.441406 46.996094 C 45.496094 47.171875 45.574219 47.285156 45.683594 47.429688 C 45.734375 47.5 45.734375 47.5 45.789062 47.574219 C 45.835938 47.625 45.835938 47.625 45.886719 47.679688 C 45.929688 47.679688 45.972656 47.679688 46.019531 47.679688 C 46.019531 47.722656 46.019531 47.765625 46.019531 47.8125 C 46.867188 48.554688 47.828125 48.863281 48.941406 48.875 C 50.039062 48.796875 51.121094 48.386719 51.863281 47.546875 C 52.199219 47.078125 52.445312 46.59375 52.527344 46.019531 C 52.542969 45.941406 52.542969 45.941406 52.5625 45.859375 C 52.597656 45.675781 52.601562 45.503906 52.601562 45.316406 C 52.601562 45.257812 52.601562 45.195312 52.601562 45.132812 C 52.59375 44.972656 52.570312 44.84375 52.527344 44.691406 C 52.511719 44.613281 52.496094 44.539062 52.480469 44.460938 C 52.359375 43.957031 52.082031 43.457031 51.796875 43.03125 C 51.753906 43.03125 51.710938 43.03125 51.664062 43.03125 C 51.652344 42.984375 51.640625 42.941406 51.625 42.894531 C 51.496094 42.625 51.300781 42.425781 51.066406 42.234375 C 51.023438 42.234375 50.980469 42.234375 50.933594 42.234375 C 50.902344 42.136719 50.902344 42.136719 50.867188 42.035156 C 50.824219 42.035156 50.78125 42.035156 50.734375 42.035156 C 50.734375 41.992188 50.734375 41.949219 50.734375 41.902344 C 50.5 41.675781 50.339844 41.535156 50.003906 41.503906 C 50.003906 41.460938 50.003906 41.417969 50.003906 41.371094 C 49.808594 41.355469 49.808594 41.355469 49.671875 41.4375 Z M 49.671875 41.4375 "/>
</g>
</svg>
